<svg version="1.2" xmlns="http://www.w3.org/2000/svg" viewBox="0 0 1000 1000" width="1000" height="1000">
	<title>2558697-ai</title>
	<defs>
		<linearGradient id="g1" x2="1" gradientUnits="userSpaceOnUse" gradientTransform="matrix(-178.101,144.223,-194.622,-240.338,459.129,494.345)">
			<stop offset="0" stop-color="#505050"/>
			<stop offset="1" stop-color="#fd7b38"/>
		</linearGradient>
		<linearGradient id="g2" x2="1" gradientUnits="userSpaceOnUse" gradientTransform="matrix(236.83,0,0,174.195,481.767,221)">
			<stop offset="0" stop-color="#505050"/>
			<stop offset="1" stop-color="#505050"/>
		</linearGradient>
		<linearGradient id="g3" x2="1" gradientUnits="userSpaceOnUse" gradientTransform="matrix(242.831,0,0,174.195,379.947,222)">
			<stop offset="0" stop-color="#505050"/>
			<stop offset="1" stop-color="#505050"/>
		</linearGradient>
		<linearGradient id="g4" x2="1" gradientUnits="userSpaceOnUse" gradientTransform="matrix(-272.904,0,0,-199.778,534.316,667.738)">
			<stop offset="0" stop-color="#505050"/>
			<stop offset="1" stop-color="#505050"/>
		</linearGradient>
		<linearGradient id="g5" x2="1" gradientUnits="userSpaceOnUse" gradientTransform="matrix(-219.161,0,0,-156.471,655.95,667.738)">
			<stop offset="0" stop-color="#505050"/>
			<stop offset="1" stop-color="#505050"/>
		</linearGradient>
		<linearGradient id="g6" x2="1" gradientUnits="userSpaceOnUse" gradientTransform="matrix(211.78,319.203,-245.846,163.11,484.756,5.4)">
			<stop offset="0" stop-color="#505050"/>
			<stop offset="1" stop-color="#505050"/>
		</linearGradient>
		<linearGradient id="g7" x2="1" gradientUnits="userSpaceOnUse" gradientTransform="matrix(238.316,0,0,174.969,423.995,221)">
			<stop offset="0" stop-color="#505050"/>
			<stop offset=".983" stop-color="#505050"/>
			<stop offset=".985" stop-color="#805c49"/>
			<stop offset=".99" stop-color="#fd7b38"/>
		</linearGradient>
		<linearGradient id="g8" x2="1" gradientUnits="userSpaceOnUse" gradientTransform="matrix(151.578,0,0,174.39,418.007,221)">
			<stop offset="0" stop-color="#fd7b38"/>
			<stop offset="1" stop-color="#00b1e2"/>
		</linearGradient>
		<linearGradient id="g9" x2="1" gradientUnits="userSpaceOnUse" gradientTransform="matrix(151.579,0,0,173.568,447.406,494.368)">
			<stop offset="0" stop-color="#fd7b38"/>
			<stop offset="1" stop-color="#fd7b38"/>
		</linearGradient>
		<linearGradient id="g10" x2="1" gradientUnits="userSpaceOnUse" gradientTransform="matrix(0,118.073,-300.859,0,528.289,375.934)">
			<stop offset="0" stop-color="#fd7b38"/>
			<stop offset="1" stop-color="#fd7b38"/>
		</linearGradient>
	</defs>
	<style>
		tspan { white-space:pre } 
		.s0 { fill: url(#g1) } 
		.s1 { fill: url(#g2) } 
		.s2 { fill: url(#g3) } 
		.s3 { fill: url(#g4) } 
		.s4 { fill: url(#g5) } 
		.s5 { fill: url(#g6) } 
		.s6 { fill: url(#g7) } 
		.s7 { fill: url(#g8) } 
		.s8 { fill: url(#g9) } 
		.s9 { fill: url(#g10) } 
	</style>
	<g id="OBJECTS">
		<g id="&lt;Group&gt;">
			<g id="&lt;Group&gt;">
				<path id="&lt;Path&gt;" class="s0" d="m661.6 536.2c0 72.6-58.9 131.4-131.4 131.4h-82.9c156.9 0 182.9-135.6 113.4-173.9-8.6-6.2-19.1-9.9-30.5-9.9h-44.8c-36.3 0-69.2-14.7-93-38.5-18.4-18.4-31.3-42.2-36.3-68.8 31.7 31.1 97.9 58.5 184.1 69.8 46 6 87.4 13.8 114.3 47.2 4.6 13.4 7.1 27.8 7.1 42.7z"/>
				<path id="&lt;Path&gt;" class="s1" d="m579.3 264.3c-52.8 5.4-85.1 2-121.5 19-45.4 21.3-41.9 88.1-2.7 111.9-13.4-9.5-22.1-25.1-22.1-42.8 0-28.9 23.4-52.4 52.4-52.4h97.1c43.7 0 79.1-35.4 79.1-79-1.4 14.8-17.4 36.6-82.3 43.3z"/>
				<path id="&lt;Path&gt;" class="s2" d="m454.1 396.2c-39.2-23.8-42.7-90.6 2.7-111.9 36.4-17 68.7-13.6 121.5-19 64.9-6.7 80.9-28.5 82.3-43.3h-92c-152.8 0-186.7 131-114.5 174.2z"/>
				<path id="&lt;Path&gt;" class="s3" d="m437.7 624.7c52.8-5.5 85.1-2 121.5-19 45.4-21.1 41.9-87.7 2.7-111.3 13.4 9.4 22.1 25 22.1 42.5 0 28.8-23.4 52.2-52.4 52.2h-97.2c-43.6 0-79 35.2-79 78.6 1.4-14.7 17.4-36.4 82.3-43z"/>
				<path id="&lt;Path&gt;" class="s4" d="m561.9 494.4c39.2 23.6 42.7 90.2-2.7 111.3-36.4 17-68.7 13.5-121.5 19-64.9 6.6-80.9 28.3-82.3 43h92c152.8 0 186.7-130.4 114.5-173.3z"/>
				<path id="&lt;Path&gt;" class="s5" d="m654.5 493.5c-26.9-33.4-68.3-41.2-114.3-47.2-86.2-11.3-152.4-38.7-184.1-69.8-1.4-7.8-2.2-15.9-2.2-24.1 0-72.6 58.9-131.4 131.5-131.4h84.2c-152.8 0-186.7 131-114.5 174.2 8.6 6 19 9.6 30.3 9.6h44.8c57.6 0 106.6 37.1 124.3 88.7z"/>
				<g id="&lt;Group&gt;" style="opacity: .7;mix-blend-mode: overlay">
					<path id="&lt;Path&gt;" class="s6" d="m661.6 221c-0.3 3.7-1.6 7.3-3.4 10.6-0.8 1.7-2 3.1-3.1 4.7l-1.9 2.1c-0.6 0.7-1.2 1.4-1.9 2-5.5 5.1-12.1 8.9-18.9 12l-5.2 2.1-5.3 1.9c-1.8 0.6-3.6 1.1-5.4 1.6l-5.4 1.5c-3.6 0.7-7.3 1.6-11 2.3-3.7 0.6-7.3 1.3-11 1.8-14.9 2-29.8 3-44.7 4.1-14.8 1-29.8 1.8-44.5 4.1-7.3 1.1-14.6 2.6-21.8 4.6-7.1 2.1-14.1 4.7-20.8 7.9-6.6 3.2-12.7 7.6-17.6 13.2-2.5 2.8-4.5 5.8-6.4 9-1.8 3.3-3.4 6.6-4.6 10.1-2.5 7-3.5 14.5-3.5 21.9 0.1 7.4 1.2 14.8 3.5 21.8 4.4 14.2 13.7 27 26.4 34.9-12.8-7.7-22.4-20.4-27.1-34.6-4.7-14.2-5-30-0.2-44.3 1.1-3.6 2.8-7 4.6-10.3 1.9-3.2 4-6.4 6.5-9.2 4.9-5.8 11.1-10.3 17.9-13.6 6.7-3.3 13.7-6 20.9-8.1 7.2-2.1 14.6-3.6 22-4.8 14.8-2.2 29.8-2.9 44.7-3.8 14.8-1 29.8-1.9 44.5-3.9 3.7-0.4 7.4-1.1 11.1-1.7 3.6-0.7 7.3-1.5 10.9-2.3 7.2-1.9 14.4-3.8 21.2-6.9 6.8-2.9 13.4-6.6 18.9-11.6 0.8-0.6 1.4-1.2 2-1.9l1.9-2.1c1.1-1.5 2.3-2.9 3.1-4.6 1.9-3.2 3.2-6.8 3.6-10.5z"/>
				</g>
				<g id="&lt;Group&gt;" style="opacity: .7;mix-blend-mode: color-dodge">
					<path id="&lt;Path&gt;" class="s7" d="m569.6 221l-8.9 0.3-4.4 0.2c-1.5 0.1-3 0.3-4.5 0.4l-8.8 0.8c-3 0.4-5.9 0.9-8.8 1.3l-4.4 0.7-4.3 0.9c-2.9 0.6-5.8 1.1-8.7 1.9l-8.6 2.4c-2.8 0.7-5.5 1.9-8.4 2.8-11 4-21.8 9.1-31.6 15.6-9.9 6.5-18.9 14.4-26.3 23.5-7.6 9.1-13.6 19.4-17.5 30.5-3.8 11.1-5.7 23-4.8 34.7 0.3 3 0.5 5.9 1.2 8.8 0.3 1.4 0.5 2.9 0.9 4.3l1.2 4.2 0.6 2.2 0.9 2 1.6 4.1c0.6 1.3 1.4 2.6 2 3.9 0.7 1.3 1.3 2.7 2.2 3.9 6.2 10.1 14.8 18.6 24.9 24.8-10.2-6-19.1-14.4-25.5-24.4-0.9-1.2-1.5-2.6-2.2-3.9-0.7-1.3-1.5-2.6-2.1-3.9l-1.7-4.2-0.9-2-0.7-2.2-1.3-4.3c-0.4-1.4-0.6-2.9-0.9-4.3-0.8-2.9-1-5.9-1.3-8.9-0.3-1.5-0.2-3-0.2-4.5-0.1-1.4-0.1-2.9-0.1-4.4l0.3-4.5c0.1-1.5 0.2-3 0.5-4.5 0.4-2.9 0.8-5.9 1.6-8.7l1.1-4.4 1.5-4.2c3.9-11.3 9.9-21.8 17.5-31.1 15.3-18.4 36.4-31.4 58.8-39.2 22.4-8 46.4-10.6 70.1-10.6z"/>
				</g>
				<g id="&lt;Group&gt;" style="opacity: .7;mix-blend-mode: color-dodge">
					<path id="&lt;Path&gt;" class="s8" d="m447.4 667.7c11.8-0.3 23.7-0.9 35.3-2.9l4.4-0.7 4.3-0.9c2.9-0.6 5.8-1.1 8.7-1.9l8.5-2.3c2.9-0.8 5.6-1.9 8.4-2.8 11.1-4.1 21.8-9.1 31.7-15.6 9.8-6.4 18.8-14.2 26.3-23.3 7.5-9 13.6-19.3 17.5-30.3 3.9-11.1 5.8-22.9 4.9-34.7-0.3-2.9-0.5-5.8-1.2-8.7-0.3-1.4-0.5-2.9-0.9-4.3l-1.2-4.2-0.6-2.1-0.9-2.1-1.6-4.1c-0.6-1.3-1.4-2.6-2-3.9-0.7-1.3-1.4-2.6-2.2-3.8-6.2-10.1-14.8-18.5-24.9-24.7 10.2 6 19 14.3 25.5 24.3 0.9 1.2 1.5 2.5 2.2 3.8 0.7 1.3 1.5 2.6 2.1 4l1.7 4.1 0.9 2 0.7 2.2 1.3 4.2c0.4 1.5 0.6 3 0.9 4.4 0.8 2.9 1 5.9 1.3 8.8 0.3 1.5 0.2 3 0.2 4.5 0.1 1.5 0.1 3 0.1 4.5l-0.3 4.4c-0.1 1.5-0.2 3-0.5 4.5-0.5 2.9-0.9 5.9-1.7 8.7-0.4 1.5-0.7 2.9-1.1 4.4l-1.4 4.2c-4 11.3-10 21.7-17.7 30.9-7.6 9.1-16.7 17-26.7 23.5-10 6.4-20.8 11.5-32 15.4-22.5 8-46.4 10.6-70 10.5z"/>
				</g>
				<g id="&lt;Group&gt;" style="mix-blend-mode: color-dodge">
					<path id="&lt;Path&gt;" class="s9" d="m356.1 376.5c9.9 9.4 21.3 17.1 33.1 23.7 11.8 6.7 24.1 12.5 36.8 17.4 12.7 4.9 25.6 9.2 38.7 12.8 3.3 1 6.6 1.8 9.9 2.6l4.9 1.3 5 1.1 9.9 2.3 10 2c26.6 5.7 54 7.2 80.5 13.8 6.7 1.5 13.2 3.5 19.7 5.7l4.8 1.9 2.3 0.9 2.4 1 4.6 2.1 4.6 2.4 2.2 1.2 2.2 1.4 4.3 2.7 4.2 3c0.7 0.5 1.4 1 2 1.5l2 1.7c5.3 4.2 9.9 9.4 14.3 14.5-4.5-5.1-9.1-10.1-14.5-14.2l-2-1.7c-0.7-0.5-1.4-0.9-2.1-1.4l-4.2-3-4.3-2.6-2.2-1.3-2.3-1.1-4.5-2.4-4.6-2-2.4-1.1-2.3-0.9-4.8-1.8c-6.5-2.1-13-4.1-19.6-5.6-26.4-6.3-53.8-7.7-80.5-13.3l-10.1-2-9.9-2.3-5-1.2-4.9-1.3c-3.3-0.9-6.6-1.7-9.9-2.7-13.1-3.7-26-8.1-38.7-13.1-12.7-5-25.1-10.8-36.9-17.7-11.7-6.8-22.9-14.8-32.7-24.3z"/>
				</g>
			</g>
		</g>
	</g>
</svg>