<svg version="1.2" xmlns="http://www.w3.org/2000/svg" viewBox="0 0 2900 2000" width="2900" height="2000">
	<title>2539-ai</title>
	<defs>
		<linearGradient id="g1" x2="1" gradientUnits="userSpaceOnUse" gradientTransform="matrix(0,-306.684,5576.024,0,1486.173,1927.872)">
			<stop offset="0" stop-color="#a6a6a6"/>
			<stop offset="1" stop-color="#5c5c5c"/>
		</linearGradient>
		<linearGradient id="g2" x2="1" gradientUnits="userSpaceOnUse" gradientTransform="matrix(447.348,583.964,-592.95,454.232,2748.923,934.081)">
			<stop offset="0" stop-color="#ba572b"/>
			<stop offset="1" stop-color="#803429"/>
		</linearGradient>
		<linearGradient id="g3" x2="1" gradientUnits="userSpaceOnUse" gradientTransform="matrix(91.623,-1392.676,1394.035,91.712,1449.565,1650.205)">
			<stop offset="0" stop-color="#e6583b"/>
			<stop offset="1" stop-color="#ffa04f"/>
		</linearGradient>
		<linearGradient id="g4" x2="1" gradientUnits="userSpaceOnUse" gradientTransform="matrix(-1484.295,-208.277,48.637,-346.614,2512.707,676.025)">
			<stop offset="0" stop-color="#e6583b"/>
			<stop offset="1" stop-color="#ffa04f"/>
		</linearGradient>
		<linearGradient id="g5" x2="1" gradientUnits="userSpaceOnUse" gradientTransform="matrix(206.806,-1154.453,226.861,40.639,-27179.606,-3527.747)">
			<stop offset="0" stop-color="#e6583b"/>
			<stop offset="1" stop-color="#a16132"/>
		</linearGradient>
		<linearGradient id="g6" x2="1" gradientUnits="userSpaceOnUse" gradientTransform="matrix(206.806,-1154.454,5875.343,1052.494,1999.729,1699.366)">
			<stop offset="0" stop-color="#e6583b"/>
			<stop offset="1" stop-color="#a16132"/>
		</linearGradient>
		<linearGradient id="g7" x2="1" gradientUnits="userSpaceOnUse" gradientTransform="matrix(206.805,-1154.448,5875.342,1052.494,1952.431,1690.891)">
			<stop offset="0" stop-color="#e6583b"/>
			<stop offset="1" stop-color="#a16132"/>
		</linearGradient>
		<linearGradient id="g8" x2="1" gradientUnits="userSpaceOnUse" gradientTransform="matrix(206.805,-1154.45,5875.342,1052.494,1905.339,1682.455)">
			<stop offset="0" stop-color="#e6583b"/>
			<stop offset="1" stop-color="#a16132"/>
		</linearGradient>
		<linearGradient id="g9" x2="1" gradientUnits="userSpaceOnUse" gradientTransform="matrix(206.806,-1154.453,226.861,40.639,-26915.573,-3480.448)">
			<stop offset="0" stop-color="#e6583b"/>
			<stop offset="1" stop-color="#a16132"/>
		</linearGradient>
		<linearGradient id="g10" x2="1" gradientUnits="userSpaceOnUse" gradientTransform="matrix(206.806,-1154.453,226.861,40.639,-26651.539,-3433.15)">
			<stop offset="0" stop-color="#e6583b"/>
			<stop offset="1" stop-color="#a16132"/>
		</linearGradient>
		<linearGradient id="g11" x2="1" gradientUnits="userSpaceOnUse" gradientTransform="matrix(43.161,-290.357,258.573,38.436,2289.331,1711.412)">
			<stop offset="0" stop-color="#ff9f55"/>
			<stop offset="1" stop-color="#ffd255"/>
		</linearGradient>
		<linearGradient id="g12" x2="1" gradientUnits="userSpaceOnUse" gradientTransform="matrix(53.01,-272.905,237.125,46.06,2008.336,1415.824)">
			<stop offset="0" stop-color="#ff9f55"/>
			<stop offset="1" stop-color="#ffd255"/>
		</linearGradient>
		<linearGradient id="g13" x2="1" gradientUnits="userSpaceOnUse" gradientTransform="matrix(23.56,-273.561,268.693,23.141,2037.069,866.524)">
			<stop offset="0" stop-color="#ff9f55"/>
			<stop offset="1" stop-color="#ffd255"/>
		</linearGradient>
		<linearGradient id="g14" x2="1" gradientUnits="userSpaceOnUse" gradientTransform="matrix(43.194,-251.309,220.067,37.824,1746.654,1115.552)">
			<stop offset="0" stop-color="#ff9f55"/>
			<stop offset="1" stop-color="#ffd255"/>
		</linearGradient>
		<linearGradient id="g15" x2="1" gradientUnits="userSpaceOnUse" gradientTransform="matrix(479.518,0,0,479.518,635.8,229.166)">
			<stop offset="0" stop-color="#ff9f55"/>
			<stop offset="1" stop-color="#ffd255"/>
		</linearGradient>
		<linearGradient id="g16" x2="1" gradientUnits="userSpaceOnUse" gradientTransform="matrix(219.833,0,0,219.833,1077.808,127.826)">
			<stop offset="0" stop-color="#ff9f55"/>
			<stop offset="1" stop-color="#ffd255"/>
		</linearGradient>
		<linearGradient id="g17" x2="1" gradientUnits="userSpaceOnUse" gradientTransform="matrix(1404.811,0,0,1404.81,557.184,416.353)">
			<stop offset="0" stop-color="#ff9f55"/>
			<stop offset="1" stop-color="#ffd255"/>
		</linearGradient>
		<linearGradient id="g18" x2="1" gradientUnits="userSpaceOnUse" gradientTransform="matrix(-1011.927,-1024.47,1627.867,-1607.936,853.495,2225.769)">
			<stop offset="0" stop-color="#ff9340"/>
			<stop offset="1" stop-color="#ffe8a8"/>
		</linearGradient>
		<linearGradient id="g19" x2="1" gradientUnits="userSpaceOnUse" gradientTransform="matrix(346.273,634.832,-691.846,377.371,2166.901,218.659)">
			<stop offset="0" stop-color="#f0eeee"/>
			<stop offset="1" stop-color="#dbbcb4"/>
		</linearGradient>
		<linearGradient id="g20" x2="1" gradientUnits="userSpaceOnUse" gradientTransform="matrix(-138.577,494.057,-280.41,-78.652,2809.073,767.302)">
			<stop offset="0" stop-color="#f0eeee"/>
			<stop offset="1" stop-color="#dbbcb4"/>
		</linearGradient>
		<linearGradient id="g21" x2="1" gradientUnits="userSpaceOnUse" gradientTransform="matrix(106.191,652.762,-640.245,104.155,1744.041,233.102)">
			<stop offset="0" stop-color="#f0eeee"/>
			<stop offset="1" stop-color="#dbbcb4"/>
		</linearGradient>
		<linearGradient id="g22" x2="1" gradientUnits="userSpaceOnUse" gradientTransform="matrix(-42.73,472.88,-486.021,-43.918,1727.36,90.766)">
			<stop offset="0" stop-color="#f0eeee"/>
			<stop offset="1" stop-color="#dbbcb4"/>
		</linearGradient>
		<linearGradient id="g23" x2="1" gradientUnits="userSpaceOnUse" gradientTransform="matrix(304.057,374.768,-489.399,397.059,1777.237,240.951)">
			<stop offset="0" stop-color="#f0eeee"/>
			<stop offset="1" stop-color="#dbbcb4"/>
		</linearGradient>
		<linearGradient id="g24" x2="1" gradientUnits="userSpaceOnUse" gradientTransform="matrix(-2.637,163.522,-215.152,-3.47,1318.053,1256.508)">
			<stop offset=".037" stop-color="#1b4d8f"/>
			<stop offset="1" stop-color="#202c52"/>
		</linearGradient>
		<linearGradient id="g25" x2="1" gradientUnits="userSpaceOnUse" gradientTransform="matrix(129.99,389.972,-346.223,115.407,1519.184,750.612)">
			<stop offset="0" stop-color="#ffd255"/>
			<stop offset="1" stop-color="#e38d36"/>
		</linearGradient>
		<linearGradient id="g26" x2="1" gradientUnits="userSpaceOnUse" gradientTransform="matrix(74.249,0,0,63.581,1480.857,1339.149)">
			<stop offset=".037" stop-color="#1b4d8f"/>
			<stop offset="1" stop-color="#202c52"/>
		</linearGradient>
		<linearGradient id="g27" x2="1" gradientUnits="userSpaceOnUse" gradientTransform="matrix(109.972,329.916,-331.173,110.391,1559.924,747.708)">
			<stop offset="0" stop-color="#ffd255"/>
			<stop offset="1" stop-color="#e38d36"/>
		</linearGradient>
		<linearGradient id="g28" x2="1" gradientUnits="userSpaceOnUse" gradientTransform="matrix(80.739,384.002,-378.159,79.51,1506.229,956.623)">
			<stop offset=".037" stop-color="#1b4d8f"/>
			<stop offset="1" stop-color="#202c52"/>
		</linearGradient>
		<linearGradient id="g29" x2="1" gradientUnits="userSpaceOnUse" gradientTransform="matrix(123.957,371.873,-1070.162,356.72,1338.307,775.641)">
			<stop offset="0" stop-color="#ffd255"/>
			<stop offset="1" stop-color="#e38d36"/>
		</linearGradient>
		<linearGradient id="g30" x2="1" gradientUnits="userSpaceOnUse" gradientTransform="matrix(140.247,420.743,-477.119,159.039,1571.576,704.602)">
			<stop offset="0" stop-color="#ffd255"/>
			<stop offset="1" stop-color="#e38d36"/>
		</linearGradient>
		<linearGradient id="g31" x2="1" gradientUnits="userSpaceOnUse" gradientTransform="matrix(366.998,958.863,-8363.724,3201.157,1027.868,129.573)">
			<stop offset="0" stop-color="#d5c4e0"/>
			<stop offset="1" stop-color="#ac9dc5"/>
		</linearGradient>
		<linearGradient id="g32" x2="1" gradientUnits="userSpaceOnUse" gradientTransform="matrix(135.82,256.647,-189.631,100.354,1253.806,918.748)">
			<stop offset="0" stop-color="#d5c4e0"/>
			<stop offset="1" stop-color="#aa9bc4"/>
		</linearGradient>
		<linearGradient id="g33" x2="1" gradientUnits="userSpaceOnUse" gradientTransform="matrix(103.169,185.174,-137.016,76.337,1213.633,859.139)">
			<stop offset="0" stop-color="#d5c4e0"/>
			<stop offset="1" stop-color="#aa9bc4"/>
		</linearGradient>
		<linearGradient id="g34" x2="1" gradientUnits="userSpaceOnUse" gradientTransform="matrix(58.027,151.608,-117.592,45.008,1271.85,950.742)">
			<stop offset="0" stop-color="#d5c4e0"/>
			<stop offset="1" stop-color="#aa9bc4"/>
		</linearGradient>
		<linearGradient id="g35" x2="1" gradientUnits="userSpaceOnUse" gradientTransform="matrix(106.348,1232.863,-146.37,12.626,17750.939,-868.792)">
			<stop offset="0" stop-color="#ba572b"/>
			<stop offset="1" stop-color="#803429"/>
		</linearGradient>
		<linearGradient id="g36" x2="1" gradientUnits="userSpaceOnUse" gradientTransform="matrix(0,-347.432,1004.59,0,523.182,1822.13)">
			<stop offset="0" stop-color="#3076a1"/>
			<stop offset="1" stop-color="#639c38"/>
		</linearGradient>
		<linearGradient id="g37" x2="1" gradientUnits="userSpaceOnUse" gradientTransform="matrix(0,-255.267,629.518,0,719.362,1764.881)">
			<stop offset="0" stop-color="#ebd8d1"/>
			<stop offset="1" stop-color="#fae7e0"/>
		</linearGradient>
		<linearGradient id="g38" x2="1" gradientUnits="userSpaceOnUse" gradientTransform="matrix(0,-262.009,10173.129,0,811.948,1743.282)">
			<stop offset="0" stop-color="#bfb0aa"/>
			<stop offset="1" stop-color="#fae7e0"/>
		</linearGradient>
		<linearGradient id="g39" x2="1" gradientUnits="userSpaceOnUse" gradientTransform="matrix(0,-262.009,10863.304,0,742.778,1743.282)">
			<stop offset="0" stop-color="#bfb0aa"/>
			<stop offset="1" stop-color="#fae7e0"/>
		</linearGradient>
		<linearGradient id="g40" x2="1" gradientUnits="userSpaceOnUse" gradientTransform="matrix(-753.061,0,0,-201.066,952.174,1416.816)">
			<stop offset="0" stop-color="#ff9f55"/>
			<stop offset="1" stop-color="#ffd255"/>
		</linearGradient>
		<linearGradient id="g41" x2="1" gradientUnits="userSpaceOnUse" gradientTransform="matrix(0,-194.551,632.795,0,339.187,1563.309)">
			<stop offset="0" stop-color="#ebd8d1"/>
			<stop offset="1" stop-color="#fae7e0"/>
		</linearGradient>
		<linearGradient id="g42" x2="1" gradientUnits="userSpaceOnUse" gradientTransform="matrix(0,-298.652,15018.94,0,296.002,1555.458)">
			<stop offset="0" stop-color="#bfb0aa"/>
			<stop offset="1" stop-color="#fae7e0"/>
		</linearGradient>
		<linearGradient id="g43" x2="1" gradientUnits="userSpaceOnUse" gradientTransform="matrix(0,-298.661,16037.879,0,365.177,1555.459)">
			<stop offset="0" stop-color="#bfb0aa"/>
			<stop offset="1" stop-color="#fae7e0"/>
		</linearGradient>
		<linearGradient id="g44" x2="1" gradientUnits="userSpaceOnUse" gradientTransform="matrix(0,-204.08,1233.684,0,658.683,1423.044)">
			<stop offset="0" stop-color="#3076a1"/>
			<stop offset="1" stop-color="#639c38"/>
		</linearGradient>
		<linearGradient id="g45" x2="1" gradientUnits="userSpaceOnUse" gradientTransform="matrix(0,-142.695,674.678,0,882.658,1406.242)">
			<stop offset="0" stop-color="#ebd8d1"/>
			<stop offset="1" stop-color="#fae7e0"/>
		</linearGradient>
		<linearGradient id="g46" x2="1" gradientUnits="userSpaceOnUse" gradientTransform="matrix(0,-3.163,159.064,0,956.248,1338.874)">
			<stop offset="0" stop-color="#bfb0aa"/>
			<stop offset="1" stop-color="#fae7e0"/>
		</linearGradient>
		<linearGradient id="g47" x2="1" gradientUnits="userSpaceOnUse" gradientTransform="matrix(0,-2.191,169.855,0,887.091,1369.483)">
			<stop offset="0" stop-color="#bfb0aa"/>
			<stop offset="1" stop-color="#fae7e0"/>
		</linearGradient>
		<linearGradient id="g48" x2="1" gradientUnits="userSpaceOnUse" gradientTransform="matrix(0,-41.16,816.394,0,611.556,1607.812)">
			<stop offset="0" stop-color="#ffffff"/>
			<stop offset="1" stop-color="#9c9c9c"/>
		</linearGradient>
		<linearGradient id="g49" x2="1" gradientUnits="userSpaceOnUse" gradientTransform="matrix(0,-30.105,597.107,0,494.815,1449.435)">
			<stop offset="0" stop-color="#ffffff"/>
			<stop offset="1" stop-color="#9c9c9c"/>
		</linearGradient>
		<linearGradient id="g50" x2="1" gradientUnits="userSpaceOnUse" gradientTransform="matrix(329.861,0,0,155.37,1707.08,1619.267)">
			<stop offset="0" stop-color="#1c3b47"/>
			<stop offset="1" stop-color="#31535f"/>
		</linearGradient>
		<linearGradient id="g51" x2="1" gradientUnits="userSpaceOnUse" gradientTransform="matrix(254.92,327.754,-472.396,367.419,1925.332,1640.776)">
			<stop offset="0" stop-color="#1c3b47"/>
			<stop offset="1" stop-color="#31535f"/>
		</linearGradient>
		<linearGradient id="g52" x2="1" gradientUnits="userSpaceOnUse" gradientTransform="matrix(24.869,108.639,-299.64,68.592,1863.108,1530.417)">
			<stop offset="0" stop-color="#1c3b47"/>
			<stop offset="1" stop-color="#31535f"/>
		</linearGradient>
		<linearGradient id="g53" x2="1" gradientUnits="userSpaceOnUse" gradientTransform="matrix(151.179,306.284,-299.329,147.746,1276.242,454.795)">
			<stop offset="0" stop-color="#ff9f55"/>
			<stop offset="1" stop-color="#ffd255"/>
		</linearGradient>
	</defs>
	<style>
		.s0 { opacity: .7;fill: url(#g1) } 
		.s1 { fill: url(#g2) } 
		.s2 { fill: url(#g3) } 
		.s3 { fill: url(#g4) } 
		.s4 { fill: url(#g5) } 
		.s5 { fill: url(#g6) } 
		.s6 { fill: url(#g7) } 
		.s7 { fill: url(#g8) } 
		.s8 { fill: url(#g9) } 
		.s9 { fill: url(#g10) } 
		.s10 { fill: url(#g11) } 
		.s11 { fill: #d98c48 } 
		.s12 { fill: url(#g12) } 
		.s13 { fill: url(#g13) } 
		.s14 { fill: url(#g14) } 
		.s15 { fill: #a3a3a3 } 
		.s16 { fill: #ffdf69 } 
		.s17 { fill: url(#g15) } 
		.s18 { fill: url(#g16) } 
		.s19 { fill: url(#g17) } 
		.s20 { fill: url(#g18) } 
		.s21 { fill: #ffe7e6 } 
		.s22 { fill: #8b84ab } 
		.s23 { fill: #66607d } 
		.s24 { opacity: .7;fill: #ffffff } 
		.s25 { fill: url(#g19) } 
		.s26 { fill: url(#g20) } 
		.s27 { fill: url(#g21) } 
		.s28 { fill: url(#g22) } 
		.s29 { fill: url(#g23) } 
		.s30 { fill: #eddad3 } 
		.s31 { fill: #d6d6d6 } 
		.s32 { fill: #e8e8e8 } 
		.s33 { fill: #c2c2c2 } 
		.s34 { fill: url(#g24) } 
		.s35 { fill: url(#g25) } 
		.s36 { fill: #8e4f3a } 
		.s37 { fill: url(#g26) } 
		.s38 { fill: url(#g27) } 
		.s39 { fill: url(#g28) } 
		.s40 { fill: #3a3f47 } 
		.s41 { fill: #4f2c20 } 
		.s42 { fill: url(#g29) } 
		.s43 { fill: url(#g30) } 
		.s44 { fill: #b8973d } 
		.s45 { fill: #5e5853 } 
		.s46 { fill: url(#g31) } 
		.s47 { fill: url(#g32) } 
		.s48 { fill: url(#g33) } 
		.s49 { fill: url(#g34) } 
		.s50 { fill: #ffffff } 
		.s51 { fill: url(#g35) } 
		.s52 { fill: url(#g36) } 
		.s53 { fill: #3a7d8d } 
		.s54 { fill: url(#g37) } 
		.s55 { fill: url(#g38) } 
		.s56 { fill: url(#g39) } 
		.s57 { fill: url(#g40) } 
		.s58 { fill: #f08533 } 
		.s59 { fill: url(#g41) } 
		.s60 { fill: url(#g42) } 
		.s61 { fill: url(#g43) } 
		.s62 { fill: url(#g44) } 
		.s63 { fill: url(#g45) } 
		.s64 { fill: url(#g46) } 
		.s65 { fill: url(#g47) } 
		.s66 { mix-blend-mode: color-burn;fill: url(#g48) } 
		.s67 { mix-blend-mode: color-burn;fill: url(#g49) } 
		.s68 { fill: #757d28 } 
		.s69 { fill: #5c9e33 } 
		.s70 { fill: #4d8b33 } 
		.s71 { fill: #b1c265 } 
		.s72 { fill: #92a05b } 
		.s73 { fill: #c7ca7f } 
		.s74 { fill: #518330 } 
		.s75 { fill: #6c9f44 } 
		.s76 { fill: #4a8a33 } 
		.s77 { fill: #689c2f } 
		.s78 { fill: #478b33 } 
		.s79 { fill: #61a23e } 
		.s80 { fill: #5c9b3b } 
		.s81 { fill: url(#g50) } 
		.s82 { fill: url(#g51) } 
		.s83 { fill: url(#g52) } 
		.s84 { fill: url(#g53) } 
	</style>
	<g id="Слой 1">
		<g id="&lt;Group&gt;">
			<path id="&lt;Path&gt;" class="s0" d="m2792.3 1785.6c0 39.5-583 71.6-1302.2 71.6-719.1 0-1302.1-32.1-1302.1-71.6 0-39.6 583-71.6 1302.1-71.6 719.2 0 1302.2 32 1302.2 71.6z"/>
			<g id="&lt;Group&gt;">
				<path id="&lt;Path&gt;" class="s1" d="m2655.3 696v1003.4c0 23-17.1 42.1-39.3 45.2q-3.1 0.5-6.4 0.5h-1134.2c-25.2 0-45.6-20.5-45.6-45.7v-1003.4c0-25.3 20.4-45.7 45.6-45.7h1134.2q3.3 0 6.4 0.4c22.2 3.2 39.3 22.2 39.3 45.3z"/>
			</g>
			<g id="&lt;Group&gt;">
				<path id="&lt;Path&gt;" class="s2" d="m1516.8 1680.2h1070.7v-1069.6h-1070.7z"/>
			</g>
			<g id="&lt;Group&gt;">
				<path id="&lt;Path&gt;" class="s3" d="m1516.8 610.6h1070.7v-50.5c0-32.4-26.3-58.7-58.7-58.7h-953.3c-32.4 0-58.7 26.3-58.7 58.7z"/>
			</g>
			<g id="&lt;Group&gt;">
				<path id="&lt;Path&gt;" class="s4" d="m1789.3 610.6h-19.3v1069.6h19.3z"/>
				<path id="&lt;Path&gt;" class="s5" d="m1516.8 1407.7v19.2h1070.7v-19.2z"/>
				<path id="&lt;Path&gt;" class="s6" d="m1516.8 1135.2v19.2h1070.7v-19.2z"/>
				<path id="&lt;Path&gt;" class="s7" d="m1516.8 863.9v19.2h1070.7v-19.2z"/>
				<path id="&lt;Path&gt;" class="s8" d="m2061.8 610.6h-19.3v1069.6h19.3z"/>
				<path id="&lt;Path&gt;" class="s9" d="m2334.3 610.6h-19.3v1069.6h19.3z"/>
			</g>
			<g id="&lt;Group&gt;">
				<path id="&lt;Path&gt;" class="s10" d="m2587.5 1426.9c0 0-0.1 117.3-27.6 216.6l-58.6 36.7h-206.5c39.2-104.4 39.5-253.3 39.5-253.3z"/>
				<path id="&lt;Path&gt;" class="s11" d="m2501.3 1680.2v-37.5h58.6z"/>
			</g>
			<g id="&lt;Group&gt;">
				<path id="&lt;Path&gt;" class="s12" d="m2315 1154.4c0 0-0.1 117.3-27.6 216.6l-58.6 36.7h-206.5c39.2-104.4 39.5-253.3 39.5-253.3z"/>
				<path id="&lt;Path&gt;" class="s11" d="m2228.8 1407.7v-37.5h58.6z"/>
			</g>
			<g id="&lt;Group&gt;">
				<path id="&lt;Path&gt;" class="s13" d="m2315 610.6c0 0-0.1 117.2-27.6 216.6l-58.6 36.7h-206.5c39.2-104.4 39.5-253.3 39.5-253.3z"/>
				<path id="&lt;Path&gt;" class="s11" d="m2228.8 863.9v-37.5h58.6z"/>
			</g>
			<g id="&lt;Group&gt;">
				<g id="&lt;Group&gt;">
					<path id="&lt;Path&gt;" class="s14" d="m2042.5 883.1c0 0-0.2 117.3-27.6 216.6l-58.6 36.7h-206.5c39.2-104.4 39.5-253.3 39.5-253.3z"/>
					<path id="&lt;Path&gt;" class="s11" d="m1956.3 1136.4v-37.5h58.6z"/>
				</g>
				<g id="&lt;Group&gt;">
					<g id="&lt;Group&gt;">
						<path id="&lt;Path&gt;" class="s15" d="m1907.3 1056.3c-3.3 0-5.9-2.6-5.9-5.8v-81.5c0-3.2 2.6-5.8 5.9-5.8 3.2 0 5.8 2.6 5.8 5.8v81.5c0 3.2-2.6 5.8-5.8 5.8z"/>
					</g>
				</g>
			</g>
			<g id="&lt;Group&gt;">
				<g id="&lt;Group&gt;">
					<g id="&lt;Group&gt;">
						<path id="&lt;Path&gt;" class="s16" d="m2447.3 1313.1l-36.8-32.1c-3-2.6-3.3-7.2-0.7-10.2 2.6-3 7.2-3.3 10.2-0.7l26 22.7 37.1-41.4c2.7-3 7.3-3.2 10.3-0.5 2.9 2.6 3.2 7.2 0.5 10.2z"/>
					</g>
				</g>
			</g>
			<g id="&lt;Group&gt;">
				<path id="&lt;Compound Path&gt;" fill-rule="evenodd" class="s17" d="m1115.3 425v87.8l-39.6 8c-4.8 18.8-12.3 36.6-21.9 53l22.3 33.6-31 31.1-31 31-33.7-22.4c-16.3 9.7-34.1 17.1-53 22l-7.9 39.6h-87.8l-8-39.6c-18.8-4.9-36.6-12.3-53-22l-33.6 22.4-31.1-31-31-31.1 22.4-33.6c-9.7-16.4-17.2-34.2-22-53l-39.6-8v-87.8l39.6-7.9c4.8-18.9 12.3-36.7 22-53l-22.4-33.7 31-31 31.1-31 33.6 22.3c16.4-9.6 34.2-17.1 53-22l8-39.5h87.8l7.9 39.5c18.9 4.9 36.7 12.4 53 22l33.7-22.3 31 31 31 31-22.3 33.7c9.6 16.3 17.1 34.1 21.9 53zm-85.9 43.9c0-85-68.9-153.9-153.8-153.9-85 0-153.8 68.9-153.8 153.9 0 84.9 68.8 153.8 153.8 153.8 84.9 0 153.8-68.9 153.8-153.8z"/>
			</g>
			<g id="&lt;Group&gt;">
				<path id="&lt;Compound Path&gt;" fill-rule="evenodd" class="s18" d="m1297.6 217.6v40.3l-18.1 3.6c-2.2 8.7-5.7 16.8-10.1 24.3l10.3 15.4-14.3 14.3-14.2 14.2-15.4-10.3c-7.5 4.5-15.7 7.9-24.3 10.1l-3.7 18.2h-40.2l-3.7-18.2c-8.6-2.2-16.7-5.6-24.2-10.1l-15.5 10.3-14.2-14.2-14.2-14.3 10.2-15.4c-4.4-7.5-7.8-15.6-10-24.3l-18.2-3.6v-40.3l18.2-3.6c2.2-8.7 5.6-16.8 10-24.3l-10.2-15.5 14.2-14.2 14.2-14.2 15.5 10.2c7.5-4.4 15.6-7.8 24.2-10l3.7-18.2h40.2l3.7 18.2c8.6 2.2 16.8 5.6 24.3 10l15.4-10.2 14.2 14.2 14.3 14.2-10.3 15.5c4.4 7.5 7.9 15.6 10.1 24.3zm-39.4 20.1c0-39-31.6-70.5-70.5-70.5-39 0-70.5 31.5-70.5 70.5 0 38.9 31.5 70.5 70.5 70.5 38.9 0 70.5-31.6 70.5-70.5z"/>
			</g>
			<path id="&lt;Path&gt;" class="s19" d="m1962 1118.8c0 387.9-314.5 702.4-702.4 702.4-387.9 0-702.4-314.5-702.4-702.4 0-388 314.5-702.4 702.4-702.4 387.9 0 702.4 314.4 702.4 702.4z"/>
			<path id="&lt;Path&gt;" class="s20" d="m615 1157.3c0 231.5 112 436.9 284.8 564.9-205.2-122.7-342.6-347-342.6-603.4 0-388 314.5-702.5 702.4-702.5 156.4 0 300.9 51.2 417.7 137.7-105.3-63-228.4-99.1-359.9-99.1-387.9 0-702.4 314.5-702.4 702.4z"/>
			<path id="&lt;Path&gt;" class="s21" d="m1894.9 1118.8c0 350.8-284.4 635.3-635.3 635.3-350.9 0-635.3-284.5-635.3-635.3 0-350.9 284.4-635.3 635.3-635.3 350.9 0 635.3 284.4 635.3 635.3z"/>
			<path id="&lt;Path&gt;" class="s22" d="m1268.6 599.1h-18.1v-65.7h18.1z"/>
			<path id="&lt;Path&gt;" class="s22" d="m1268.6 1704.1h-18.1v-65.7h18.1z"/>
			<path id="&lt;Path&gt;" class="s22" d="m1779.3 1127.8v-18.1h65.6v18.1z"/>
			<path id="&lt;Path&gt;" class="s22" d="m674.3 1127.8v-18.1h65.6v18.1z"/>
			<path id="&lt;Path&gt;" class="s22" d="m1620.7 1492.6l12.7-12.8 46.5 46.5-12.8 12.7z"/>
			<path id="&lt;Path&gt;" class="s22" d="m839.3 711.3l12.8-12.8 46.4 46.4-12.8 12.8z"/>
			<path id="&lt;Path&gt;" class="s22" d="m885.7 1479.8l12.8 12.8-46.4 46.4-12.8-12.7z"/>
			<path id="&lt;Path&gt;" class="s22" d="m1667.1 698.5l12.8 12.8-46.5 46.4-12.7-12.8z"/>
			<g id="&lt;Group&gt;">
				<path id="&lt;Compound Path&gt;" fill-rule="evenodd" class="s22" d="m1259.6 1672.1c-147.8 0-286.8-57.6-391.3-162.1-104.5-104.5-162.1-243.4-162.1-391.2 0-147.8 57.6-286.8 162.1-391.3 104.5-104.5 243.5-162.1 391.3-162.1 147.8 0 286.8 57.6 391.3 162.1 104.5 104.5 162 243.5 162 391.3 0 147.8-57.5 286.7-162 391.2-104.5 104.5-243.5 162.1-391.3 162.1zm0-1105c-304.2 0-551.7 247.5-551.7 551.7 0 304.1 247.5 551.6 551.7 551.6 304.2 0 551.6-247.5 551.6-551.6 0-304.2-247.4-551.7-551.6-551.7z"/>
			</g>
			<path id="&lt;Path&gt;" class="s23" d="m944.8 795.4c7.2 6.1 14.2 12.4 21.3 18.6l21.1 18.8c14.1 12.6 27.9 25.3 41.8 38.1 27.6 25.6 54.9 51.5 82 77.6 27.1 26.1 54 52.4 80.6 79 13.4 13.2 26.6 26.5 39.9 39.9 13.3 13.3 26.4 26.8 39.6 40.2l-11.5-4.8c40.3-0.2 80.7 0.1 121 0.5 40.3 0.6 80.6 1.3 121 2.6 40.3 1.2 80.6 2.7 121 4.8 20.1 1 40.3 2.1 60.5 3.5l30.2 2c10.1 0.9 20.2 1.6 30.3 2.6-10.1 0.9-20.2 1.6-30.3 2.5l-30.2 2.1c-20.2 1.3-40.4 2.4-60.5 3.5-40.4 2-80.7 3.5-121 4.7-40.4 1.3-80.7 2-121 2.6-40.3 0.4-80.7 0.7-121 0.6l-6.8-0.1-4.7-4.8c-13-13.5-26.2-27-39.1-40.6-13-13.6-26-27.2-38.9-40.9-25.8-27.3-51.3-55-76.8-82.7-25.3-27.8-50.5-55.8-75.3-84.1-12.4-14.2-24.8-28.4-36.9-42.8l-18.3-21.6c-6-7.2-12.1-14.4-18-21.8z"/>
			<path id="&lt;Path&gt;" class="s24" d="m1704.5 744.4c-94.5-66.6-209.8-105.8-334.2-105.8-320.7 0-580.6 259.9-580.6 580.6 0 144.8 53 277.2 140.7 378.9-149.1-105.1-246.4-278.6-246.4-474.8 0-320.7 259.9-580.6 580.6-580.6 175.8 0 333.5 78.2 439.9 201.7z"/>
			<g id="&lt;Group&gt;">
				<path id="&lt;Path&gt;" class="s25" d="m2190.6 429.8c0 0 76.3 27.7 153.1 94.9l-88.2 65.5c0 0-69.5-68.5-145.3-102.4z"/>
				<path id="&lt;Path&gt;" class="s26" d="m2288.2 924.8c0 0 42.5-133.9 153.1-271.3l119.6 147.8c0 0-113.5 124.9-166.8 258.4z"/>
				<path id="&lt;Path&gt;" class="s27" d="m1639.8 819.8c0 0-97.3-97.2-163.4-260.7l191.3-50.8c0 0 53.7 160.9 145.2 268.3z"/>
				<path id="&lt;Path&gt;" class="s28" d="m1589.7 138.5c0 0-81.1 63.4-157.2 200.5l129.8 65.1c0 0 86.2-160.7 159.3-215.1z"/>
				<path id="&lt;Path&gt;" class="s29" d="m1762.4 344.9c0 0 80.4-11.2 179.7 12.3l-47.3 99.2c0 0-93.4-28.1-176.4-22.6z"/>
			</g>
			<g id="&lt;Group&gt;">
				<g id="&lt;Group&gt;">
					<path id="&lt;Compound Path&gt;" class="s30" d="m383.1 1292.7l-2-3.7c0.1 0 11.7-6.4 28.1-18.4l2.5 3.4c-16.6 12.1-28.4 18.7-28.6 18.7zm55-39.9l-2.7-3.2c8.5-7.5 16.6-15.3 24.1-23.3l3.1 2.9c-7.6 8.1-15.8 16-24.5 23.6zm46.3-49.6l-3.4-2.5c6.8-9.2 12.9-18.6 18.2-28.1l3.7 2.1c-5.4 9.6-11.6 19.2-18.5 28.5zm32.6-59.4l-3.9-1.5c3.8-10.5 6.7-21.4 8.6-32.1l4.1 0.7c-1.9 11-4.8 22.1-8.8 32.9zm7.3-66.7c-0.2-11-1.4-22.1-3.6-33.1l4.2-0.9c2.2 11.3 3.4 22.7 3.6 33.9zm-12.7-65.2c-3.7-10-8.3-20.3-13.7-30.4l3.8-2c5.4 10.3 10.1 20.7 13.9 31zm-31-59.1q-3.5-5.1-7.3-10.3c-4.2-5.7-8.2-11.6-12-17.4l3.5-2.3c3.7 5.8 7.7 11.6 11.9 17.2q3.8 5.3 7.3 10.4zm-36.5-56.8c-5.4-10.1-10.2-20.4-14.5-30.7l3.9-1.6c4.2 10.2 9 20.4 14.3 30.3zm-25.8-62.6c-3.2-10.9-5.9-22-7.9-33l4.1-0.8c2 10.9 4.7 21.9 7.9 32.6zm-12.2-66.6c-0.6-7.2-0.8-14.5-0.8-21.7q0-6.2 0.2-12.3l4.2 0.2q-0.2 6-0.2 12.1c0 7.1 0.2 14.3 0.8 21.3zm6.9-67l-4.2-0.6c1.8-11.2 4.2-22.3 7.1-33.2l4.1 1.1c-2.9 10.7-5.3 21.7-7 32.7zm17.7-64.4l-3.9-1.6c4.3-10.4 9.1-20.8 14.5-30.6l3.7 2c-5.3 9.7-10.1 19.9-14.3 30.2zm32.1-58.5l-3.4-2.5c6.6-9.2 13.8-18.1 21.4-26.3l3.1 2.9c-7.5 8.1-14.6 16.8-21.1 25.9zm45.3-49l-2.7-3.2c8.8-7.3 18.1-14 27.6-19.9l2.2 3.6c-9.3 5.8-18.4 12.4-27.1 19.5zm56.8-34.8l-1.7-3.9c10.5-4.5 21.4-8.1 32.3-10.8l1 4.1c-10.7 2.6-21.3 6.2-31.6 10.6zm64.5-15.7l-0.3-4.2q2.4-0.2 4.9-0.3c9.7-0.4 19.3-1.2 28.5-2.4l0.5 4.2c-9.3 1.2-19 2-28.8 2.4q-2.4 0.1-4.8 0.3zm67-8.9l-1-4.1c10.9-2.7 21.7-6.1 31.9-10l1.5 4c-10.4 3.9-21.3 7.3-32.4 10.1zm63.2-24.4l-2.1-3.7c9.8-5.3 19.3-11.4 28.1-18.1l2.5 3.4c-9 6.8-18.6 13-28.5 18.4zm54.2-40.7l-3-3c7.8-7.9 15.1-16.4 21.7-25.3l3.4 2.5c-6.7 9-14.1 17.7-22.1 25.8zm40.1-54.8l-3.8-1.9c3.7-7.2 5.3-11.7 5.4-11.9l3.9 1.5c-0.1 0.5-1.8 5-5.5 12.3z"/>
				</g>
				<g id="&lt;Group&gt;">
					<g id="&lt;Group&gt;">
						<g id="&lt;Group&gt;">
							<path id="&lt;Path&gt;" class="s31" d="m1019.5 181.8l-143.5 134.5 14.1-57.4z"/>
						</g>
					</g>
					<g id="&lt;Group&gt;">
						<g id="&lt;Group&gt;">
							<path id="&lt;Path&gt;" class="s32" d="m1019.5 181.8l-97 24.6-14.5 41.9z"/>
						</g>
					</g>
					<g id="&lt;Group&gt;">
						<g id="&lt;Group&gt;">
							<path id="&lt;Path&gt;" class="s33" d="m909 285.3l19.6 9.9 90.9-113.4z"/>
						</g>
					</g>
				</g>
			</g>
			<g id="&lt;Group&gt;">
				<path id="&lt;Path&gt;" class="s34" d="m1295.7 1349.8c0 0-9 7.9-17.1 20.1-8.1 12.1-29.5 12.7-30.5 29.3-0.9 16.5 29.2 17.1 45 11.7 15.8-5.4 18.2-21.6 27.8-25.6 9.5-4.1 14.5-7.4 13.8-15.2-0.8-7.9-6.1-20.8-6.1-20.8 0 0-5.9 1.9-9.4 2.3-3.5 0.4-15.2 0.5-23.5-1.8z"/>
				<path id="&lt;Path&gt;" class="s35" d="m1404 901.3c0 0-6 36-10.9 59.8q0 0 0 0c-2 9.6-3.8 17.3-4.9 19.7-1.4 3-12.7 15.2-26.7 29.5-24.4 25.2-56.6 56.8-56.6 56.8l-12.6-23.9c0 0 28.6-33.6 48-56 9-10.4 16-18.4 17.3-19.5 4.1-3.7 8.8-39.5 15.4-68.9 6.7-29.5 19.9-45.8 19.9-45.8z"/>
				<path id="&lt;Path&gt;" class="s36" d="m1361.5 1010.3c-24.4 25.2-56.6 56.8-56.6 56.8l-12.6-23.9c0 0 28.6-33.6 48-56 6 2.9 16.9 9.9 21.2 23.1z"/>
				<g id="&lt;Group&gt;">
					<path id="&lt;Path&gt;" class="s37" d="m1518.1 1340c0 0 8.3 9.1 13.2 14.7 4.9 5.6 23.7 15.5 23.8 32 0.1 17.9-13.9 16.3-26.3 15.7-12.4-0.7-22.5-9.3-27.7-19.4-5.3-10.1-19.2-12.8-20.2-21-0.9-8.1 6.5-22.9 6.5-22.9z"/>
				</g>
				<path id="&lt;Path&gt;" class="s36" d="m1489 1323.9l-1.6 15.2c0 0 25.9 11.3 30.7 0.9l-1.1-13.6z"/>
				<path id="&lt;Path&gt;" class="s36" d="m1297.1 1338.8l-1.4 11c0 0 15.7 5.6 32.9-0.5l0.4-9.8z"/>
				<path id="&lt;Path&gt;" class="s38" d="m1519.6 1062.2c0.9 3.3-166 0-166 0 0 0 46.2-33.6 49.2-42.5 3-9-11.8-62.9-13.7-80.4-1.6-14-5.4-76.8 3.8-86.3 9.7-10.1 44.5-20.6 44.5-20.6l50.7 1.9c0 0 8.4 1.8 14.4 4.6 5.9 2.7 40.2 14.9 45.7 32 5.6 17.1-34.1 72.1-34.1 72.1 0 0-0.1 2.5-0.2 6.5q0 0 0 0c-0.2 5.4-0.4 13.6-0.6 22.5-0.3 11.5-0.5 24.2-0.5 33.5 0 21.8 5.9 53.5 6.8 56.7z"/>
				<path id="&lt;Path&gt;" class="s39" d="m1519.6 1062.2c0 0 22.7 33.4 23 56.1 0.3 22.8-8.4 85.9-9 98.4-0.7 12.5-12.4 116.7-12.4 116.7 0 0-9.1 8.5-36.4-2.1 0 0-6-98.8-6.6-109.4-0.7-10.6-0.7-59.3-6.8-66.4-6-7-42.9-29.1-47.7-33.3-4.8-4.2-88.6 15.8-97.4 18.1-22.7 5.9-12.4 45.4-7.3 63.2 8.4 29.6 15.7 136.8 15.7 136.8 0 0-16.1 6.9-43.3 1 0 0-53.2-193.4-54.9-212.6-1.7-19.3-2.6-51 128.6-75.1z"/>
				<path id="&lt;Path&gt;" class="s36" d="m1451.3 722.2c0 0-44-9.9-34 45.5 10.1 55.4 20.7 59.8 47.2 48.3 26.6-11.5 24.2-47 25.6-64.4 1.3-17.4-24.8-28.8-38.8-29.4z"/>
				<path id="&lt;Path&gt;" class="s36" d="m1439.7 846.7c0 0 19.5 20.6 50.3 1.9 0 0-6.9-44.9-3.3-66.7 3.6-21.8-40.2 33.8-40.2 33.8 0.6 0.3 1 2.4 1 5.4 0.1 2.5 0 5.6-0.4 8.9-0.9 7.2-3.2 14.9-7.4 16.7z"/>
				<path id="&lt;Path&gt;" class="s40" d="m1487.9 780.1c0 0-1.1-17.5-7.5-18-6.4-0.6-7.4 6.5-7.4 6.5l-6.4 1.2c0 0 2-15.3-4.3-18-6.4-2.7-41.3 8.4-46.4 3.9-5.1-4.5-2.7-35.5 6.5-39.8 9.3-4.2 34.8-13.7 53.5-1.1 0 0 14.6-1.6 16.8 10.1 2.1 11.8-0.8 46.4-4.8 55.2z"/>
				<path id="&lt;Path&gt;" class="s41" d="m1447.1 830c31.8-9.8 34.2-29 34.2-29.3-10.5 18-33.8 20.4-33.8 20.4 0.1 2.5 0 5.6-0.4 8.9z"/>
				<path id="&lt;Path&gt;" class="s36" d="m1503 839.1c0 0-23.3 46.3-60.9 43.4-37.6-3-6.4-49.6-4.7-50.1 1.9-0.4 38.6-9.6 65.6 6.7z"/>
				<path id="&lt;Path&gt;" class="s42" d="m1334.5 1059.9c0 0 115.3 14.2 185.1 2.3l-133.4-16.6c0 0-0.8 3.4-51.7 14.3z"/>
				<path id="&lt;Path&gt;" class="s36" d="m1420.7 1040.3l-8.6 4.4c0 0 2 13.6 6.7 17.7l9.6-2.4c0 0-2-15-7.7-19.7z"/>
				<path id="&lt;Path&gt;" class="s43" d="m1554.1 1012.4c-1.7 2-24.4 11.1-50 21-35 13.4-74.4 26.2-74.4 26.2l-9-19.3c0 0 41.3-22.4 69.2-38.2 13.2-7.4 23.4-13.3 24.9-14.7 4.4-4.3 5.6-11.1 2.3-23.1-3.3-11.9-10.9-66.9-11.8-73.3-0.8-6.4 2.2-23.5 18.2-24.4 16-0.8 24.2 3.7 24.2 3.7 0 0 4 1.7 7 40.6 3 38.9 3.4 96.8-0.6 101.5z"/>
				<path id="&lt;Path&gt;" class="s44" d="m1513.9 949.5q0 0 0 0c-0.2 5.4-0.4 13.6-0.6 22.5-15.6-38.3-6.6-68.9-6.5-69.4-1.6 10.4 7 46.4 7.1 46.9z"/>
				<path id="&lt;Path&gt;" class="s44" d="m1393.1 961.1q0 0 0 0c-2 9.6-3.8 17.3-4.9 19.7-5.3-25.9-0.5-59-0.5-59 0.7 15.8 5.4 39.3 5.4 39.3z"/>
				<path id="&lt;Path&gt;" class="s36" d="m1504.1 1033.4c-35 13.4-75.7 26.6-75.7 26.6l-7.7-19.7c0 0 41.3-22.4 69.2-38.2 0 0 10.2 5 14.2 31.3z"/>
				<path id="&lt;Path&gt;" class="s45" d="m1418.2 1061.1l-163.8-2.4 82.7 42z"/>
				<path id="&lt;Path&gt;" class="s46" d="m1339.6 1100.7l81.1-31.4-2.5-8.2-87.5 31.6z"/>
				<g id="&lt;Group&gt;">
					<path id="&lt;Path&gt;" class="s36" d="m1414 1045c0 0-10.3-1.6-17.3-3.3-5.5-1.2-19.1 0.5-22.6 4-3.4 3.5-14.5 28-16.5 29.5-2.1 1.5 1 5 4.7 3.2 0 0 3.3 10.7 11.6 6.7 8.3-4 14-12.7 18.3-14.3 4.4-1.5 29.7-9.3 29.7-9.3 0 0-1.4-19.1-7.9-16.5z"/>
				</g>
				<g id="&lt;Group&gt;">
					<path id="&lt;Path&gt;" class="s36" d="m1376.6 1044.1c0 0-6.5 3.2-8.3 4.6-1.7 1.4-8.6 6.6-10.3 7.9-1.7 1.2 2.5 4.7 15-0.7 12.4-5.4 3.6-11.8 3.6-11.8z"/>
				</g>
				<path id="&lt;Path&gt;" class="s47" d="m1339.6 1100.7l-48.7-133-157.1 2.5 46.4 122.6z"/>
				<path id="&lt;Path&gt;" class="s48" d="m1335.9 1102.2l-48.3-131.9-157.1 2.6 46.4 122.6z"/>
				<path id="&lt;Path&gt;" class="s36" d="m1474.9 760.4c0.6-4.9 10.3-6.7 11 0.6 0.8 7.3-4.4 20.2-8 18.9-3.7-1.2-3.8-12.8-3-19.5z"/>
			</g>
			<path id="&lt;Path&gt;" class="s49" d="m1133.8 970.2l-3.3 2.7 157.1-2.6 48.3 131.9 3.7-1.5-48.7-133z"/>
			<path id="&lt;Path&gt;" class="s50" d="m2284.2 646.2h-191.7c-1.8 0-3.2-1.4-3.2-3.2v-1.9c0-1.8 1.4-3.2 3.2-3.2h191.7c1.8 0 3.2 1.4 3.2 3.2v1.9c0 1.8-1.4 3.2-3.2 3.2z"/>
			<path id="&lt;Path&gt;" class="s50" d="m2210.7 682.4h-121.7c-1.7 0-3.2-1.4-3.2-3.1v-2c0-1.8 1.5-3.2 3.2-3.2h121.7c1.8 0 3.2 1.4 3.2 3.2v2c0 1.7-1.4 3.1-3.2 3.1z"/>
			<path id="&lt;Path&gt;" class="s50" d="m2229.5 718.6h-145.3c-1.7 0-3.2-1.4-3.2-3.1v-2c0-1.7 1.5-3.2 3.2-3.2h145.3c1.7 0 3.2 1.5 3.2 3.2v2c0 1.7-1.5 3.1-3.2 3.1z"/>
			<path id="&lt;Path&gt;" class="s50" d="m2285.9 1186.8h-193.8c-1.2 0-2.1-1-2.1-2.1v-4.1c0-1.2 0.9-2.1 2.1-2.1h193.8c1.2 0 2.1 0.9 2.1 2.1v4.1c0 1.1-0.9 2.1-2.1 2.1z"/>
			<path id="&lt;Path&gt;" class="s50" d="m2178.6 1223h-90c-1.2 0-2.1-0.9-2.1-2.1v-4.1c0-1.2 0.9-2.1 2.1-2.1h90c1.2 0 2.1 0.9 2.1 2.1v4.1c0 1.2-0.9 2.1-2.1 2.1z"/>
			<path id="&lt;Path&gt;" class="s50" d="m2241.1 1259.2h-157.3c-1.2 0-2.1-0.9-2.1-2.1v-4.1c0-1.1 0.9-2.1 2.1-2.1h157.3c1.2 0 2.1 1 2.1 2.1v4.1c0 1.2-0.9 2.1-2.1 2.1z"/>
			<path id="&lt;Path&gt;" class="s50" d="m2527.4 1458.6h-161.3c-1.8 0-3.2-1.4-3.2-3.2v-1.9c0-1.8 1.4-3.2 3.2-3.2h161.3c1.8 0 3.2 1.4 3.2 3.2v1.9c0 1.8-1.4 3.2-3.2 3.2z"/>
			<path id="&lt;Path&gt;" class="s50" d="m2451.7 1494.8h-90.3c-1.7 0-3.2-1.4-3.2-3.2v-1.9c0-1.7 1.5-3.2 3.2-3.2h90.3c1.8 0 3.2 1.5 3.2 3.2v1.9c0 1.8-1.4 3.2-3.2 3.2z"/>
			<path id="&lt;Path&gt;" class="s50" d="m2470.9 1531h-115.9c-1.8 0-3.2-1.4-3.2-3.2v-1.9c0-1.7 1.4-3.2 3.2-3.2h115.9c1.8 0 3.2 1.5 3.2 3.2v1.9c0 1.8-1.4 3.2-3.2 3.2z"/>
			<path id="&lt;Path&gt;" class="s51" d="m2655.3 696v1003.4c0 23-17.1 42.1-39.3 45.2v-1093.9c22.2 3.2 39.3 22.2 39.3 45.3z"/>
			<path id="&lt;Path&gt;" class="s52" d="m860.6 1577.1v208.5h-563.6c-21.6 0-39.1-17.6-39.1-39.1v-130.3q0-1.6 0.1-3.2c1.5-18.8 16.4-33.9 35.2-35.7q1.9-0.2 3.8-0.2z"/>
			<path id="&lt;Path&gt;" class="s53" d="m966.9 1577.1v21.5h-9.9v165.5h9.9v21.5h-409c-21.6 0-39.1-17.5-39.1-39.1v-130.3q0-1.6 0.1-3.2c1.5-18.9 16.5-34 35.4-35.7q1.8-0.2 3.6-0.2z"/>
			<path id="&lt;Path&gt;" class="s54" d="m957 1764.1h-369.6c-21.3 0-38.6-17.3-38.6-38.6v-88.3c0-21.3 17.3-38.6 38.6-38.6h369.6z"/>
			<path id="&lt;Path&gt;" class="s55" d="m891.5 1684.6h-159v-4.1h159z"/>
			<path id="&lt;Path&gt;" class="s56" d="m827.8 1697.1h-169.9v-4.1h169.9z"/>
			<g id="&lt;Group&gt;">
				<path id="&lt;Path&gt;" class="s57" d="m247.5 1577.7h562.1c22.4 0 40.6-18.1 40.6-40.6v-79.7c0-22.4-18.2-40.6-40.6-40.6h-562.1z"/>
				<path id="&lt;Path&gt;" class="s58" d="m589.3 1457.4v79.7c0 22.5-18.2 40.6-40.6 40.6h-407.6v-16.5h9.9v-127.8h-9.9v-16.6h407.6c20.7 0 37.9 15.6 40.3 35.8q0.3 2.3 0.3 4.8z"/>
				<path id="&lt;Path&gt;" class="s59" d="m151 1561.2h375.2c22.3 0 40.5-18.1 40.5-40.5v-46.9c0-22.3-18.2-40.4-40.5-40.4h-375.2z"/>
				<path id="&lt;Path&gt;" class="s60" d="m216.5 1499.8h159.1v-3.2h-159.1z"/>
				<path id="&lt;Path&gt;" class="s61" d="m280.3 1509.4h169.8v-3.2h-169.8z"/>
			</g>
			<g id="&lt;Group&gt;">
				<path id="&lt;Path&gt;" class="s62" d="m1004.9 1416.8h-648.6c-14 0-25.3-11.3-25.3-25.3v-60.8c0-14 11.3-25.4 25.3-25.4h648.6z"/>
				<path id="&lt;Path&gt;" class="s53" d="m1101.3 1316.8v88.5h9.9v11.5h-423.7c-13.5 0-24.5-10.9-24.5-24.4v-62.6c0-13.5 11-24.5 24.5-24.5h423.7v11.5z"/>
				<path id="&lt;Path&gt;" class="s63" d="m1101.3 1405.3h-394.1c-13.5 0-24.5-10.9-24.5-24.4v-39.6c0-13.5 11-24.5 24.5-24.5h394.1z"/>
				<path id="&lt;Path&gt;" class="s64" d="m1035.8 1338.9h-159.1v-3.2h159.1z"/>
				<path id="&lt;Path&gt;" class="s65" d="m972 1369.5h-169.8v-2.2h169.8z"/>
			</g>
			<path id="&lt;Path&gt;" class="s66" d="m966.9 1577.3v21.3h-9.9v14.4h-699c1.5-18.8 16.4-33.9 35.2-35.7z"/>
			<path id="&lt;Path&gt;" class="s67" d="m850.2 1452.6h-699.1v-14.5h-0.1v-4.7h-9.7v-16.6h673.7c18.8 1.8 33.7 16.9 35.2 35.8z"/>
			<g id="&lt;Group&gt;">
				<g id="&lt;Group&gt;">
					<path id="&lt;Path&gt;" class="s68" d="m2118.3 1468c0 0-83 12.5-204.2 76.8-121.1 64.3 94.9 19.4 204.2-76.8z"/>
					<path id="&lt;Path&gt;" class="s69" d="m1897.8 1554.2c0 0 60.2-114.9 153.9-167.3 0 0-27.2 79.7-126 165.3-98.8 85.5-27.9 2-27.9 2z"/>
					<path id="&lt;Path&gt;" class="s70" d="m1849.6 1475.6c0 0-62.2-76-87-110.6-24.9-34.5 52.2 161.7 58.5 182.4 6.4 20.8 32.7 38.8 28.5-71.8z"/>
					<path id="&lt;Path&gt;" class="s71" d="m1909.1 1593.1c27.6-41.5 47-228.1 47-228.1-48.4 40.1-94 220.4-94 220.4 0 0 19.3 49.2 47 7.7z"/>
					<path id="&lt;Path&gt;" class="s72" d="m1902.8 1574.3c8.3-17.6-2.7-246.4-9.4-225.7-6.6 20.8-44.2 106.5-44.2 106.5-5.6 51.9 45.3 136.8 53.6 119.2z"/>
					<path id="&lt;Path&gt;" class="s73" d="m1839.1 1523.6c-14.6-26.7-159.5-169.6-159.5-169.6 1.4 44.2 91.3 149.2 91.3 149.2 0 0 82.9 47 68.2 20.4z"/>
					<path id="&lt;Path&gt;" class="s69" d="m1909.1 1590.1c-167.3-61.7-324.8-29.6-324.8-29.6 23 31.6 241.8 29.6 241.8 29.6z"/>
					<path id="&lt;Path&gt;" class="s74" d="m1874 1595.5c-85-92.6-285.4-137.2-285.4-137.2 59.2 60.5 144.2 113.5 144.2 113.5 0 0 226.2 116.3 141.2 23.7z"/>
					<path id="&lt;Path&gt;" class="s75" d="m1891.1 1585.4c-49.7-92.1-239.2-183.1-239.2-183.1 0 29.1 153.5 164.1 153.5 164.1 0 0 135.5 111 85.7 19z"/>
					<path id="&lt;Path&gt;" class="s76" d="m1889.7 1594.5c37.3-6.9 175.6-142.4 175.6-142.4-36 6.9-175.6 95.3-175.6 95.3 0 0-37.2 53.9 0 47.1z"/>
					<path id="&lt;Path&gt;" class="s77" d="m1956.1 1595.1c47 2 197.6-91.9 197.6-91.9-45 0-148.5 27.4-199.1 41.5-19.1 5.4-35.2 18-45 35.3-27 47.7 5.5 13.3 46.5 15.1z"/>
					<path id="&lt;Path&gt;" class="s78" d="m2130.2 1554.3c-14-1.1-104.4 3-143.3 4.8-15.3 0.7-30.1 6.3-41.8 16.4-16.7 14.5-11.8 25.3 11 29.9 30.4 6.2 192.1-49.6 174.1-51.1z"/>
					<path id="&lt;Path&gt;" class="s79" d="m1885.8 1578.8c3.4-14.1 3.9-28.8 2-43.3-6.6-49.2-29.5-201.6-63-224.8 0 0-15.2 197.6 16.6 264 23.8 49.8 38 31.4 44.4 4.1z"/>
					<path id="&lt;Path&gt;" class="s80" d="m1885.6 1605.9c19-18 96.4-193.9 96.4-193.9-72.5 42.4-104.7 128.4-104.7 128.4 0 0-10.8 83.6 8.3 65.5z"/>
				</g>
				<path id="&lt;Path&gt;" class="s81" d="m1707.1 1619.3l23.9 155.3h282l23.9-155.3z"/>
				<path id="&lt;Path&gt;" class="s82" d="m2036.9 1619.3h-329.8l23.9 155.3h59.3c0 0 50.7-99.5 239.7-110.4z"/>
				<path id="&lt;Path&gt;" class="s83" d="m2050 1585.8h-356v51.9h356z"/>
			</g>
			<path id="&lt;Path&gt;" class="s84" d="m1173.4 598.7h190.5v143 30.1l-29.1-30.1h-161.4z"/>
			<g id="&lt;Group&gt;">
				<g id="&lt;Group&gt;">
					<g id="&lt;Group&gt;">
						<g id="&lt;Group&gt;">
							<g id="&lt;Group&gt;">
								<g id="&lt;Group&gt;">
									<path id="&lt;Path&gt;" class="s50" d="m1269.4 682.7l-19.6-8.5c-1.6-0.7-2.4-2.6-1.7-4.2 0.7-1.6 2.6-2.3 4.2-1.6l13.9 6 10-22.2c0.7-1.6 2.6-2.3 4.2-1.6 1.6 0.7 2.3 2.6 1.6 4.2z"/>
								</g>
							</g>
						</g>
					</g>
				</g>
				<g id="&lt;Group&gt;">
					<path id="&lt;Compound Path&gt;" fill-rule="evenodd" class="s50" d="m1291.7 701.4c-18.1 12.7-43.1 8.3-55.8-9.7-12.7-18.1-8.4-43.1 9.7-55.8 18.1-12.7 43.1-8.4 55.8 9.7 12.7 18.1 8.3 43.1-9.7 55.8zm-42.8-60.9c-15.5 10.9-19.2 32.4-8.4 47.9 10.9 15.5 32.4 19.2 47.9 8.3 15.5-10.9 19.2-32.3 8.3-47.8-10.9-15.5-32.3-19.2-47.8-8.4z"/>
				</g>
			</g>
			<g id="&lt;Group&gt;">
				<g id="&lt;Group&gt;">
					<g id="&lt;Group&gt;">
						<g id="&lt;Group&gt;">
							<path id="&lt;Path&gt;" class="s31" d="m690 1618.1l-113.6-60.9 38.6-3.3z"/>
						</g>
					</g>
					<g id="&lt;Group&gt;">
						<g id="&lt;Group&gt;">
							<path id="&lt;Path&gt;" class="s32" d="m690 1618.1l-35.6-55.1-29.1-0.2z"/>
						</g>
					</g>
					<g id="&lt;Group&gt;">
						<g id="&lt;Group&gt;">
							<path id="&lt;Path&gt;" class="s33" d="m602.5 1571.2l-2 14.2 89.5 32.7z"/>
						</g>
					</g>
				</g>
				<g id="&lt;Group&gt;">
					<path id="&lt;Compound Path&gt;" class="s30" d="m569.4 1525.5c-6.2-3.8-15.8-10-26.4-18.3l2.5-3.1c10.4 8.2 19.8 14.3 26 18zm-50.3-39.8c-7.7-8-14.5-16.4-20.3-24.9l3.3-2.2c5.6 8.3 12.3 16.5 19.9 24.4zm-35.3-53.5q-0.5-1.3-1-2.7c-3.4-9.4-5.6-19-6.6-28.6l4-0.4c0.9 9.3 3 18.6 6.3 27.6q0.5 1.4 1 2.7zm-2.5-62.9l-3.9-0.7c1.7-10.2 4.8-20.5 9.2-30.9l3.6 1.6c-4.2 10-7.2 20.1-8.9 30zm23.7-57.8l-3.3-2.1c2.4-3.9 5.1-7.8 7.9-11.6 3.5-4.8 6.9-9.7 10-14.7l3.4 2.2c-3.2 5-6.6 10-10.1 14.8-2.8 3.8-5.5 7.7-7.9 11.4zm33.5-54.2l-3.5-1.8c4.5-9.4 8.5-19.3 12-29.2l3.7 1.3c-3.4 10.1-7.5 20-12.2 29.7zm20.8-60.6l-3.9-0.8c2.2-10.3 3.8-20.8 4.8-31.2l3.9 0.4c-0.9 10.5-2.5 21.2-4.8 31.6zm5.7-63.7l-4 0.2c-0.4-10.6-1.5-21.2-3.3-31.4l4-0.7c1.8 10.4 2.9 21.1 3.3 31.9zm-11.1-63l-3.8 1.2q-0.9-2.6-1.8-5.2c-3-8.2-6.5-16.2-10.4-23.8l3.5-1.8c4 7.7 7.6 15.9 10.6 24.3q1 2.6 1.9 5.3zm-32.8-54.3c-6.5-8.3-13.7-16.1-21.4-23l2.6-3c8 7.1 15.3 15 21.9 23.6zm-46.7-41.5c-8.9-5.3-18.4-9.8-28.4-13.5l1.4-3.7c10.2 3.7 19.9 8.3 29 13.7zm-58.7-21.6c-10-1.9-20.6-3-31.3-3.4l0.1-3.9c10.9 0.3 21.7 1.5 31.9 3.4z"/>
				</g>
			</g>
		</g>
	</g>
</svg>